<svg viewBox="895 232.6618 380 206" width="5000" height="2710.5263157894733" xmlns="http://www.w3.org/2000/svg" xmlns:xlink="http://www.w3.org/1999/xlink" preserveAspectRatio="none"><defs></defs><style>.companyName {fill:#F9F9F9;fill-opacity:1;}.icon1 {fill:#F9F9F9;fill-opacity:1;}.icon2 {fill:#BCDCFF;fill-opacity:1;}.icon3 {fill:#3F3E3E;fill-opacity:1;}.icon3-str {stroke:#3F3E3E;stroke-opacity:1;}.icon4 {fill:#656565;fill-opacity:1;}.icon5 {fill:#D48A49;fill-opacity:1;}.icon6 {fill:#FF902D;fill-opacity:1;}.icon7 {fill:#AA4800;fill-opacity:1;}.icon8 {fill:#F9D47E;fill-opacity:1;}</style><defs>
      <filter
        x="895"
        y="232.6618"
        width="380"
        height="206"
        id="global"
        filterUnits="userSpaceOnUse"
        primitiveUnits="userSpaceOnUse"
        color-interpolation-filters="sRGB">
        <feColorMatrix
                        type="matrix"
                        values="0.3333 0.3333 0.3333 0 0 0.3333 0.3333 0.3333 0 0 0.3333 0.3333 0.3333 0 0 0 0 0 1 0"/>
      </filter></defs><g filter="url(#global)"><g opacity="1" transform="rotate(0 1018.6346 232.6618)">
<svg width="132.7308" height="132.5487" x="1018.6346" y="232.6618" version="1.1" preserveAspectRatio="none" viewBox="4.999750137329102 5.061999797821045 90.00049591064453 89.87700653076172">
  <g transform="matrix(1 0 0 1 0 0)" class="icon1"><g><g><path d="M53.935,12.501L17.941,48.496c-0.793,0.793-0.793,2.079,0,2.873l36.017,36.017l-7.553,7.553L7.546,56.079    c-3.395-3.395-3.395-8.899,0-12.294L46.269,5.062L53.935,12.501z"></path><path d="M64.763,68.686l17.296-17.296c0.793-0.793,0.793-2.079,0-2.873L64.712,31.171l7.553-7.553l20.189,20.189    c3.395,3.395,3.395,8.899,0,12.294L72.43,76.126L64.763,68.686z"></path></g></g></g>
</svg>
</g><g opacity="1" transform="rotate(0 895 376.3381)">
<svg width="380" height="62.3237" x="895" y="376.3381" version="1.1" preserveAspectRatio="none" viewBox="1.16 -28 170.72 28">
  <g transform="matrix(1 0 0 1 0 0)" class="icon3"><path id="id-fAwcDUYEQ6" d="M24.68-14.44Q26.48-13.72 27.46-12.30Q28.44-10.88 28.44-8.84L28.44-8.84Q28.44-4.48 25-2.24Q21.56 0 15.84 0L15.84 0L1.16 0L6.76-28L20.28-28Q24.80-28 27.24-26.34Q29.68-24.68 29.68-21.60L29.68-21.60Q29.68-19.04 28.34-17.22Q27-15.40 24.68-14.44L24.68-14.44ZM18.76-23.12L12.20-23.12L10.88-16.52L17.48-16.52Q20.04-16.52 21.46-17.54Q22.88-18.56 22.88-20.48L22.88-20.48Q22.88-23.12 18.76-23.12L18.76-23.12ZM16.24-4.88Q18.96-4.88 20.48-5.92Q22-6.96 22-8.92L22-8.92Q22-11.80 17.80-11.80L17.80-11.80L9.96-11.80L8.60-4.88L16.24-4.88Z M31.76 0L37.36-28L43.88-28L39.32-5.28L53.36-5.28L52.28 0L31.76 0Z M77.40 0L76.08-6L63.04-6L59.40 0L52.48 0L70.60-28L77-28L83.88 0L77.40 0ZM66.04-10.92L75-10.92L72.64-21.72L66.04-10.92Z M118.64-28L103.92-15.04L113.64 0L106.36 0L99.16-10.96L94.64-6.96L93.24 0L86.80 0L92.40-28L98.84-28L96.28-15.16L110.80-28L118.64-28Z M142.08-22.80L127.44-22.80L125.96-15.40L138.96-15.40L137.88-10.20L124.96-10.20L122.92 0L116.40 0L122.00-28L143.16-28L142.08-22.80Z M171.88-28L157.32-9.72L155.40 0L148.92 0L150.88-10L143.68-28L150.16-28L155.16-15.52L165.20-28L171.88-28Z"/></g>
</svg>
</g><g opacity="1" transform="rotate(0 901.233 376.3381)">
<svg width="367.534" height="62.3237" x="901.233" y="376.3381" version="1.1" preserveAspectRatio="none" viewBox="3.32 -28 165.12 28">
  <g transform="matrix(1 0 0 1 0 0)" class="companyName"><path id="id-D6z1nYkh6" d="M23.88-14.56Q26.28-13.80 27.64-12.02Q29-10.24 29-7.64L29-7.64Q29-3.96 26.14-1.98Q23.28 0 17.80 0L17.80 0L3.32 0L3.32-28L17-28Q22.12-28 24.86-26.04Q27.60-24.08 27.60-20.72L27.60-20.72Q27.60-18.68 26.62-17.08Q25.64-15.48 23.88-14.56L23.88-14.56ZM16.20-23.12L9.76-23.12L9.76-16.52L16.20-16.52Q18.60-16.52 19.84-17.36Q21.08-18.20 21.08-19.84L21.08-19.84Q21.08-21.48 19.84-22.30Q18.60-23.12 16.20-23.12L16.20-23.12ZM17.32-4.88Q19.88-4.88 21.18-5.72Q22.48-6.56 22.48-8.32L22.48-8.32Q22.48-11.80 17.32-11.80L17.32-11.80L9.76-11.80L9.76-4.88L17.32-4.88Z M33.92 0L33.92-28L40.40-28L40.40-5.28L54.44-5.28L54.44 0L33.92 0Z M79.24 0L76.76-6L63.76-6L61.28 0L54.64 0L67.12-28L73.52-28L86.04 0L79.24 0ZM65.84-10.92L74.72-10.92L70.28-21.64L65.84-10.92Z M108.12 0L99.16-11L95.40-7.08L95.40 0L88.96 0L88.96-28L95.40-28L95.40-14.92L107.80-28L115.00-28L103.40-15.52L115.68 0L108.12 0Z M139.72-22.80L125.04-22.80L125.04-15.40L138-15.40L138-10.20L125.04-10.20L125.04 0L118.56 0L118.56-28L139.72-28L139.72-22.80Z M168.44-28L157.56-9.92L157.56 0L151.08 0L151.08-10L140.24-28L147.12-28L154.60-15.56L162.08-28L168.44-28Z"/></g>
</svg>
</g></g></svg>